<svg width="128" height="128" viewBox="0 0 128 128" xmlns="http://www.w3.org/2000/svg">
  <rect width="128" height="128" rx="28" fill="#1DB954"/>
  <path fill="#FFFFFF" d="M82 28 L82 76 C82 77 82 78 81 79 C80 80 79 80 78 80 L74 80 C73 80 72 80 71 79 C70 78 70 77 70 76 L70 76 L70 38 L54 42 L54 84 C54 85 54 86 53 87 C52 88 51 88 50 88 L46 88 C45 88 44 88 43 87 C42 86 42 85 42 84 L42 84 L42 38 C42 37 42 36 43 35 C44 34 45 34 46 34 L78 26 C79 26 80 26 81 27 C82 28 82 28 82 28 Z M78 60 C74 60 70 64 70 68 C70 72 74 76 78 76 C82 76 86 72 86 68 C86 64 82 60 78 60 Z M50 68 C46 68 42 72 42 76 C42 80 46 84 50 84 C54 84 58 80 58 76 C58 72 54 68 50 68 Z"/>
</svg>
